<?xml version="1.0" encoding="UTF-8"?>
<!DOCTYPE svg PUBLIC "-//W3C//DTD SVG 1.1//EN" "http://www.w3.org/Graphics/SVG/1.1/DTD/svg11.dtd">
<svg xmlns="http://www.w3.org/2000/svg" xmlns:xlink="http://www.w3.org/1999/xlink" version="1.1" width="264px" height="174px" viewBox="-0.5 -0.5 264 174"><defs/><g><rect x="181" y="90" width="80" height="80" rx="12" ry="12" fill="#000000" stroke="#000000" pointer-events="all" transform="translate(2,3)" opacity="0.25"/><rect x="181" y="90" width="80" height="80" rx="12" ry="12" fill="rgb(255, 255, 255)" stroke="rgb(0, 0, 0)" pointer-events="all"/><path d="M 191 122 L 211 122 L 211 110 L 251 130 L 211 150 L 211 138 L 191 138 L 191 130 Z" fill="#deddda" stroke="rgb(0, 0, 0)" stroke-miterlimit="10" pointer-events="all"/><rect x="91" y="0" width="80" height="80" rx="12" ry="12" fill="#000000" stroke="#000000" pointer-events="all" transform="translate(2,3)" opacity="0.25"/><rect x="91" y="0" width="80" height="80" rx="12" ry="12" fill="rgb(255, 255, 255)" stroke="rgb(0, 0, 0)" pointer-events="all"/><path d="M 101 31.8 L 121 31.8 L 121 19.5 L 161 40 L 121 60.5 L 121 48.2 L 101 48.2 L 101 40 Z" fill="#deddda" stroke="rgb(0, 0, 0)" stroke-miterlimit="10" transform="rotate(270,131,40)" pointer-events="all"/><rect x="0" y="90" width="80" height="80" rx="12" ry="12" fill="#000000" stroke="#000000" pointer-events="all" transform="translate(2,3)" opacity="0.25"/><rect x="0" y="90" width="80" height="80" rx="12" ry="12" fill="rgb(255, 255, 255)" stroke="rgb(0, 0, 0)" pointer-events="all"/><path d="M 10 122 L 30 122 L 30 110 L 70 130 L 30 150 L 30 138 L 10 138 L 10 130 Z" fill="#deddda" stroke="rgb(0, 0, 0)" stroke-miterlimit="10" transform="translate(40,0)scale(-1,1)translate(-40,0)" pointer-events="all"/><rect x="91" y="90" width="80" height="80" rx="12" ry="12" fill="#000000" stroke="#000000" pointer-events="all" transform="translate(2,3)" opacity="0.25"/><rect x="91" y="90" width="80" height="80" rx="12" ry="12" fill="rgb(255, 255, 255)" stroke="rgb(0, 0, 0)" pointer-events="all"/><path d="M 101 122 L 121 122 L 121 110 L 161 130 L 121 150 L 121 138 L 101 138 L 101 130 Z" fill="#deddda" stroke="rgb(0, 0, 0)" stroke-miterlimit="10" transform="rotate(90,131,130)" pointer-events="all"/></g></svg>